<svg width="165" height="170" viewBox="0 0 165 170" fill="none" xmlns="http://www.w3.org/2000/svg">
<path d="M107.351 62C109.258 62 111.088 62.7786 112.437 64.1645C113.786 65.5505 114.544 67.4302 114.544 69.3902V100.61C114.544 102.57 113.786 104.45 112.437 105.835C111.088 107.221 109.258 108 107.351 108H57.8145C56.8699 108 55.9345 107.809 55.0618 107.437C54.1891 107.066 53.3962 106.522 52.7283 105.835C52.0603 105.149 51.5305 104.335 51.169 103.438C50.8075 102.541 50.6215 101.58 50.6215 100.61V69.3902C50.6215 67.4302 51.3793 65.5505 52.7283 64.1645C54.0772 62.7786 55.9068 62 57.8145 62H107.351V62ZM107.351 66.9268H57.8145C57.1786 66.9268 56.5687 67.1863 56.1191 67.6483C55.6694 68.1103 55.4168 68.7369 55.4168 69.3902V100.61C55.4168 101.97 56.491 103.073 57.8145 103.073H107.351C107.986 103.073 108.596 102.814 109.046 102.352C109.496 101.89 109.748 101.263 109.748 100.61V69.3902C109.748 68.7369 109.496 68.1103 109.046 67.6483C108.596 67.1863 107.986 66.9268 107.351 66.9268V66.9268ZM65.8068 93.2031H99.3743C99.9818 93.2033 100.567 93.4404 101.01 93.8665C101.454 94.2926 101.724 94.876 101.766 95.4986C101.807 96.1213 101.617 96.737 101.233 97.2211C100.85 97.7053 100.302 98.0219 99.7003 98.107L99.3743 98.13H65.8068C65.1993 98.1298 64.6145 97.8927 64.1706 97.4666C63.7267 97.0405 63.4568 96.4571 63.4154 95.8345C63.374 95.2118 63.5642 94.5961 63.9475 94.112C64.3309 93.6278 64.8789 93.3112 65.4807 93.2261L65.8068 93.2031H99.3743H65.8068V93.2031ZM96.9766 81.7072C97.8245 81.7072 98.6376 82.0533 99.2371 82.6693C99.8367 83.2852 100.173 84.1207 100.173 84.9918C100.173 85.8629 99.8367 86.6983 99.2371 87.3143C98.6376 87.9303 97.8245 88.2763 96.9766 88.2763C96.1287 88.2763 95.3156 87.9303 94.716 87.3143C94.1165 86.6983 93.7797 85.8629 93.7797 84.9918C93.7797 84.1207 94.1165 83.2852 94.716 82.6693C95.3156 82.0533 96.1287 81.7072 96.9766 81.7072ZM77.8111 81.7072C78.659 81.7072 79.4722 82.0533 80.0717 82.6693C80.6712 83.2852 81.008 84.1207 81.008 84.9918C81.008 85.8629 80.6712 86.6983 80.0717 87.3143C79.4722 87.9303 78.659 88.2763 77.8111 88.2763C76.9633 88.2763 76.1501 87.9303 75.5506 87.3143C74.951 86.6983 74.6142 85.8629 74.6142 84.9918C74.6142 84.1207 74.951 83.2852 75.5506 82.6693C76.1501 82.0533 76.9633 81.7072 77.8111 81.7072V81.7072ZM68.2204 81.7072C69.0683 81.7072 69.8814 82.0533 70.481 82.6693C71.0805 83.2852 71.4173 84.1207 71.4173 84.9918C71.4173 85.8629 71.0805 86.6983 70.481 87.3143C69.8814 87.9303 69.0683 88.2763 68.2204 88.2763C67.3726 88.2763 66.5594 87.9303 65.9599 87.3143C65.3603 86.6983 65.0235 85.8629 65.0235 84.9918C65.0235 84.1207 65.3603 83.2852 65.9599 82.6693C66.5594 82.0533 67.3726 81.7072 68.2204 81.7072ZM87.4019 81.7072C88.2497 81.7072 89.0629 82.0533 89.6624 82.6693C90.2619 83.2852 90.5988 84.1207 90.5988 84.9918C90.5988 85.8629 90.2619 86.6983 89.6624 87.3143C89.0629 87.9303 88.2497 88.2763 87.4019 88.2763C86.554 88.2763 85.7408 87.9303 85.1413 87.3143C84.5418 86.6983 84.2049 85.8629 84.2049 84.9918C84.2049 84.1207 84.5418 83.2852 85.1413 82.6693C85.7408 82.0533 86.554 81.7072 87.4019 81.7072V81.7072ZM63.4091 71.8536C64.257 71.8536 65.0701 72.1997 65.6696 72.8156C66.2692 73.4316 66.606 74.2671 66.606 75.1382C66.606 76.0093 66.2692 76.8447 65.6696 77.4607C65.0701 78.0767 64.257 78.4227 63.4091 78.4227C62.5612 78.4227 61.7481 78.0767 61.1485 77.4607C60.549 76.8447 60.2122 76.0093 60.2122 75.1382C60.2122 74.2671 60.549 73.4316 61.1485 72.8156C61.7481 72.1997 62.5612 71.8536 63.4091 71.8536ZM72.9838 71.8536C73.8317 71.8536 74.6448 72.1997 75.2444 72.8156C75.8439 73.4316 76.1807 74.2671 76.1807 75.1382C76.1807 76.0093 75.8439 76.8447 75.2444 77.4607C74.6448 78.0767 73.8317 78.4227 72.9838 78.4227C72.1359 78.4227 71.3228 78.0767 70.7233 77.4607C70.1237 76.8447 69.7869 76.0093 69.7869 75.1382C69.7869 74.2671 70.1237 73.4316 70.7233 72.8156C71.3228 72.1997 72.1359 71.8536 72.9838 71.8536V71.8536ZM82.5745 71.8536C83.4224 71.8536 84.2355 72.1997 84.8351 72.8156C85.4346 73.4316 85.7714 74.2671 85.7714 75.1382C85.7714 76.0093 85.4346 76.8447 84.8351 77.4607C84.2355 78.0767 83.4224 78.4227 82.5745 78.4227C81.7267 78.4227 80.9135 78.0767 80.314 77.4607C79.7144 76.8447 79.3776 76.0093 79.3776 75.1382C79.3776 74.2671 79.7144 73.4316 80.314 72.8156C80.9135 72.1997 81.7267 71.8536 82.5745 71.8536V71.8536ZM92.1652 71.8536C93.0131 71.8536 93.8263 72.1997 94.4258 72.8156C95.0253 73.4316 95.3621 74.2671 95.3621 75.1382C95.3621 76.0093 95.0253 76.8447 94.4258 77.4607C93.8263 78.0767 93.0131 78.4227 92.1652 78.4227C91.3174 78.4227 90.5042 78.0767 89.9047 77.4607C89.3052 76.8447 88.9683 76.0093 88.9683 75.1382C88.9683 74.2671 89.3052 73.4316 89.9047 72.8156C90.5042 72.1997 91.3174 71.8536 92.1652 71.8536V71.8536ZM101.756 71.8536C102.604 71.8536 103.417 72.1997 104.017 72.8156C104.616 73.4316 104.953 74.2671 104.953 75.1382C104.953 76.0093 104.616 76.8447 104.017 77.4607C103.417 78.0767 102.604 78.4227 101.756 78.4227C100.908 78.4227 100.095 78.0767 99.4954 77.4607C98.8959 76.8447 98.5591 76.0093 98.5591 75.1382C98.5591 74.2671 98.8959 73.4316 99.4954 72.8156C100.095 72.1997 100.908 71.8536 101.756 71.8536Z" fill="#EC7979"/>
<path d="M126.634 85C126.634 110.144 106.897 130.5 82.5825 130.5C58.2684 130.5 38.5308 110.144 38.5308 85C38.5308 59.8558 58.2684 39.5 82.5825 39.5C106.897 39.5 126.634 59.8558 126.634 85Z" stroke="#EC7979"/>
</svg>
