<svg width="166" height="170" viewBox="0 0 166 170" fill="none" xmlns="http://www.w3.org/2000/svg">
<path d="M74.9656 103.136H91.3821H74.9656ZM83.1756 52.3549V55.9821V52.3549ZM105.533 61.9163L103.049 64.4807L105.533 61.9163ZM114.793 85H111.28H114.793ZM55.0713 85H51.5582H55.0713ZM63.3023 64.4807L60.8186 61.9163L63.3023 64.4807ZM70.7535 97.8259C68.2974 95.2894 66.625 92.0578 65.9476 88.5398C65.2702 85.0219 65.6183 81.3756 66.9479 78.0619C68.2775 74.7482 70.5289 71.916 73.4174 69.9234C76.3059 67.9307 79.7017 66.8672 83.1756 66.8672C86.6495 66.8672 90.0454 67.9307 92.9339 69.9234C95.8223 71.916 98.0737 74.7482 99.4033 78.0619C100.733 81.3756 101.081 85.0219 100.404 88.5398C99.7263 92.0578 98.0538 95.2894 95.5977 97.8259L93.6726 99.81C92.572 100.947 91.699 102.296 91.1035 103.781C90.5079 105.266 90.2015 106.857 90.2017 108.465V110.391C90.2017 112.315 89.4615 114.16 88.1438 115.52C86.8262 116.881 85.0391 117.645 83.1756 117.645C81.3122 117.645 79.5251 116.881 78.2074 115.52C76.8898 114.16 76.1495 112.315 76.1495 110.391V108.465C76.1495 105.218 74.8989 102.102 72.6786 99.81L70.7535 97.8259Z" stroke="#EC7979" stroke-width="6.83333" stroke-linecap="round" stroke-linejoin="round"/>
<path d="M127.227 85C127.227 110.144 107.49 130.5 83.1757 130.5C58.8615 130.5 39.1239 110.144 39.1239 85C39.1239 59.8558 58.8615 39.5 83.1757 39.5C107.49 39.5 127.227 59.8558 127.227 85Z" stroke="#EC7979"/>
</svg>
