<svg width="166" height="170" viewBox="0 0 166 170" fill="none" xmlns="http://www.w3.org/2000/svg">
<path d="M74.0119 117.811C73.5532 117.608 73.172 117.249 72.9285 116.793C72.685 116.336 72.593 115.807 72.6671 115.289L76.7464 87.3575H65.9205C65.5773 87.3672 65.2366 87.2939 64.9246 87.1432C64.6126 86.9925 64.3377 86.7684 64.1211 86.4882C63.9046 86.2081 63.7521 85.8793 63.6754 85.5274C63.5988 85.1754 63.6001 84.8096 63.6792 84.4583L70.4033 53.8158C70.5216 53.2885 70.8091 52.8201 71.2173 52.4895C71.6255 52.1589 72.1296 51.9864 72.6447 52.0008H95.0584C95.3932 51.9996 95.7241 52.0774 96.0266 52.2283C96.3292 52.3792 96.5957 52.5995 96.8066 52.873C97.0206 53.1495 97.1721 53.4735 97.2497 53.8206C97.3274 54.1676 97.3291 54.5287 97.2549 54.8765L93.3773 73.2149H104.024C104.444 73.214 104.856 73.3373 105.212 73.5706C105.569 73.804 105.856 74.1381 106.041 74.5348C106.202 74.9156 106.264 75.3343 106.22 75.7484C106.177 76.1624 106.03 76.557 105.795 76.892L76.6567 116.963C76.4598 117.27 76.1969 117.524 75.8892 117.704C75.5816 117.884 75.2379 117.986 74.886 118C74.5861 117.994 74.2898 117.93 74.0119 117.811V117.811ZM87.7739 77.9291L92.2567 56.7151H74.4378L68.7447 82.6433H81.9912L78.4274 106.874L99.5411 77.9291H87.7739Z" fill="#EC7979"/>
<path d="M127.041 85C127.041 110.144 107.303 130.5 82.9892 130.5C58.675 130.5 38.9374 110.144 38.9374 85C38.9374 59.8558 58.675 39.5 82.9892 39.5C107.303 39.5 127.041 59.8558 127.041 85Z" stroke="#EC7979"/>
</svg>
